<?xml version="1.0" encoding="utf-8"?>
<!-- Generator: Adobe Illustrator 27.4.1, SVG Export Plug-In . SVG Version: 6.00 Build 0)  -->
<svg version="1.1" id="Layer_1" xmlns="http://www.w3.org/2000/svg" xmlns:xlink="http://www.w3.org/1999/xlink" x="0px" y="0px"
	 viewBox="0 0 144 148.5" style="enable-background:new 0 0 144 148.5;" xml:space="preserve">
<style type="text/css">
	.st0{fill:#BBEDF7;}
	.st1{fill:#99D9E3;}
	.st2{enable-background:new    ;}
	.st3{fill:#39A900;}
	.st4{fill:#FFFFFF;}
	.st5{fill:#00314D;}
</style>
<g>
	<path id="blob" class="st0" d="M136.3,35.7c12.2,22.8,9.4,52.7-4.2,74.7c-13.5,22.1-38,36.5-65,38c-27.1,1.4-56.7-9.8-64.7-28.6
		c-8-18.9,5.8-45.2,20.6-69.5C37.8,26,53.7,3.6,75.3,0.4C96.9-2.9,124.1,12.9,136.3,35.7z"/>
	<circle id="Elipse_6" class="st1" cx="123" cy="57" r="10"/>
	<circle id="Elipse_7" class="st1" cx="57" cy="120" r="10"/>
	<circle id="Elipse_11" class="st1" cx="134" cy="133" r="7"/>
	<circle id="Elipse_12" class="st1" cx="18" cy="13" r="7"/>
	<circle id="Elipse_8" class="st1" cx="28" cy="54" r="10"/>
	<g>
		<g class="st2">
			<path class="st3" d="M42.2,15.5h3.6V12h2.5v3.5h3.6v2.8h-3.6v3.5h-2.5v-3.5h-3.6V15.5z"/>
		</g>
		<g class="st2">
			<path class="st3" d="M126.2,95.5h3.6V92h2.5v3.5h3.6v2.8h-3.6v3.5h-2.5v-3.5h-3.6V95.5z"/>
		</g>
		<circle id="Elipse_1" class="st3" cx="117" cy="11" r="4"/>
		<circle id="Elipse_2" class="st3" cx="24" cy="38" r="4"/>
		<circle id="Elipse_5" class="st3" cx="28" cy="114" r="4"/>
		<path class="st3" d="M67,114c-2.2,0-4-1.8-4-4s1.8-4,4-4s4,1.8,4,4S69.2,114,67,114z M67,108c-1.1,0-2,0.9-2,2s0.9,2,2,2
			s2-0.9,2-2S68.1,108,67,108z"/>
		<g id="Elipse_4" transform="translate(28.665 69.676)">
			<path class="st3" d="M58.3-48.7c-2.2,0-4-1.8-4-4s1.8-4,4-4s4,1.8,4,4S60.5-48.7,58.3-48.7z M58.3-54.7c-1.1,0-2,0.9-2,2
				s0.9,2,2,2s2-0.9,2-2S59.4-54.7,58.3-54.7z"/>
		</g>
	</g>
	<g id="Grupo_20" transform="translate(-5 5)">
		<g id="Grupo_17" transform="translate(-8.922 87.833) rotate(-45)">
			<path id="Icon_awesome-hand-point-right" class="st4" d="M69.4,36c2.8,0.1,5.1,2.4,5.1,5.2v11.6c2.4-2.1,6-1.9,8.1,0.5
				c0.1,0.1,0.1,0.1,0.2,0.2c2.5-1.5,5.8-0.6,7.3,1.9c5.7-1,8.3,2.6,8.3,8.5c0,0.3,0,1.5,0,1.9c0,7.2-3.6,9-4.5,14.4
				c-0.2,1.4-1.4,2.4-2.8,2.4h-20l0,0c-2.2,0-4.2-1.3-5.1-3.3c-1.5-3.4-5.7-11.1-9-12.5c-2-0.7-3.4-2.5-3.4-4.7
				c0-3.1,2.5-5.6,5.6-5.6c0.8,0,1.5,0.2,2.2,0.5c1,0.4,2,1,2.9,1.7V41.3C64.4,38.4,66.6,36.2,69.4,36z M69.4,86.3h22.4
				c1.5,0,2.8,1.3,2.8,2.8v5.6c0,1.5-1.3,2.8-2.8,2.8H69.4c-1.5,0-2.8-1.3-2.8-2.8l0,0v-5.6C66.6,87.5,67.9,86.3,69.4,86.3
				L69.4,86.3z M89,89.5c-1.3,0-2.3,1-2.3,2.3c0,1.3,1,2.3,2.3,2.3c1.3,0,2.3-1,2.3-2.3c0,0,0,0,0,0C91.4,90.6,90.3,89.5,89,89.5z"
				/>
			<path class="st5" d="M66.8,97.3c-0.8-0.8-1.3-1.9-1.3-3l0-5.6c0-2.4,1.9-4.3,4.3-4.3h22.4c2.4,0,4.3,1.9,4.3,4.3l0,5.6
				c0,2.4-1.9,4.3-4.3,4.3H69.9C68.7,98.5,67.6,98.1,66.8,97.3z M93.2,87.7c-0.2-0.2-0.6-0.4-0.9-0.4H69.9c-0.7,0-1.3,0.6-1.3,1.3
				v5.6c0,0.7,0.6,1.3,1.3,1.3l22.4,0c0.7,0,1.3-0.6,1.3-1.3l0-5.6C93.6,88.3,93.4,87.9,93.2,87.7z M66.5,81.7
				c-0.6-0.6-1.1-1.3-1.5-2.1c-1.8-4.1-5.7-10.6-8.2-11.8c-2.6-0.9-4.3-3.3-4.3-6c0-3.9,3.2-7.1,7.1-7.1c1,0,1.9,0.2,2.8,0.6
				c0.3,0.1,0.6,0.2,0.8,0.4V40.8c0.1-3.6,3-6.6,6.5-6.7l0.1,0c3.7,0.1,6.5,3.1,6.6,6.7v9.1c0.9-0.3,1.8-0.4,2.8-0.4
				c1.6,0.1,3.2,0.8,4.4,1.8c2.7-1,5.8-0.1,7.6,2.1c2.4-0.3,4.5,0.3,6,1.6c2,1.7,3.1,4.6,3.1,8.5c0,0.2,0,0.5,0,0.9
				c0,0.4,0,0.8,0,0.9c0,4.6-1.4,7.2-2.6,9.5c-0.8,1.6-1.6,3.1-1.9,5.1c-0.3,2.1-2.1,3.6-4.2,3.6h-20C69.6,83.8,67.8,83,66.5,81.7z
				 M60.5,66.9c3.8,3.8,7.2,11.4,7.3,11.5c0.7,1.5,2.1,2.4,3.7,2.4l20,0c0.6,0,1.2-0.5,1.3-1.1c0.4-2.5,1.3-4.3,2.2-6.1
				c1.2-2.2,2.2-4.3,2.2-8.1c0-0.2,0-0.6,0-1c0-0.4,0-0.7,0-0.9c0-3-0.7-5.1-2-6.2c-1-0.9-2.6-1.1-4.5-0.8l-1,0.2l-0.5-0.9
				c-1.1-1.8-3.4-2.4-5.2-1.4l-1.1,0.6L81.9,54c-0.8-0.8-1.8-1.4-2.9-1.4c-1.1-0.1-2.2,0.3-3.1,1l-2.5,2.2l0-15c0-2-1.6-3.6-3.6-3.7
				c-2,0.1-3.6,1.8-3.6,3.8l0,20.3l-2.4-1.7c-0.8-0.6-1.7-1.1-2.6-1.5c-0.5-0.2-1-0.3-1.6-0.3c-2.3,0-4.1,1.8-4.1,4.1
				c0,1.5,1,2.8,2.4,3.2l0.1,0C58.8,65.4,59.7,66,60.5,66.9z M86.8,94.1c-0.7-0.7-1.1-1.7-1.1-2.7c0-2.1,1.7-3.8,3.8-3.8
				c1.9,0,3.4,1.4,3.8,3.1l0.1,0.1l0,0.6c0,1-0.4,2-1.1,2.7c-0.7,0.7-1.7,1.1-2.7,1.1C88.4,95.3,87.5,94.8,86.8,94.1z M90.1,90.8
				c-0.2-0.2-0.4-0.2-0.6-0.2c-0.5,0-0.8,0.4-0.8,0.8c0,0.5,0.4,0.8,0.8,0.8c0.4,0,0.8-0.4,0.8-0.8l0,0C90.3,91.2,90.2,91,90.1,90.8
				z"/>
		</g>
		<path class="st5" d="M43.8,82.5c-0.8,0-1.4-0.6-1.5-1.4c0,0-0.1-0.8-0.1-2.1c0-1,0-2.1,0.1-3.2c0.1-0.8,0.8-1.5,1.6-1.4
			c0.8,0.1,1.5,0.8,1.4,1.6c-0.1,1-0.1,2-0.1,3c0,1.1,0.1,1.8,0.1,1.8c0.1,0.8-0.5,1.5-1.4,1.6C43.9,82.5,43.9,82.5,43.8,82.5z
			 M44.5,72.5c-0.1,0-0.2,0-0.2,0c-0.8-0.1-1.4-0.9-1.2-1.7c0.3-1.7,0.6-3.4,1.1-5c0.2-0.8,1-1.3,1.8-1.1c0.8,0.2,1.3,1,1.1,1.8
			c-0.4,1.6-0.8,3.1-1,4.7C45.8,72,45.2,72.5,44.5,72.5z M47.1,62.9c-0.2,0-0.4,0-0.5-0.1c-0.8-0.3-1.2-1.2-0.9-1.9
			c0.6-1.6,1.3-3.2,2.1-4.7c0.4-0.7,1.3-1,2-0.7c0.7,0.4,1,1.3,0.7,2c-0.7,1.4-1.4,2.9-2,4.4C48.2,62.5,47.7,62.9,47.1,62.9z
			 M51.6,54c-0.3,0-0.6-0.1-0.8-0.3c-0.7-0.5-0.9-1.4-0.4-2.1c1-1.4,2-2.8,3.1-4.1c0.5-0.6,1.5-0.7,2.1-0.2c0.6,0.5,0.7,1.5,0.2,2.1
			c-1,1.2-2,2.5-2.9,3.8C52.6,53.8,52.1,54,51.6,54z M58.1,46.4c-0.4,0-0.8-0.2-1.1-0.5c-0.6-0.6-0.5-1.6,0.1-2.1
			c1.3-1.2,2.6-2.3,4-3.3c0.7-0.5,1.6-0.3,2.1,0.3c0.5,0.7,0.3,1.6-0.3,2.1c-1.3,0.9-2.6,2-3.7,3.1C58.8,46.3,58.4,46.4,58.1,46.4z
			 M66.1,40.5c-0.5,0-1-0.3-1.3-0.8c-0.4-0.7-0.2-1.6,0.6-2c1.5-0.8,3-1.6,4.6-2.3c0.8-0.3,1.6,0,2,0.8s0,1.6-0.8,2
			c-1.5,0.7-2.9,1.4-4.3,2.2C66.6,40.5,66.4,40.5,66.1,40.5z M75.2,36.4c-0.6,0-1.2-0.4-1.4-1c-0.3-0.8,0.1-1.6,0.9-1.9
			c1.6-0.5,3.2-1,4.9-1.5c0.8-0.2,1.6,0.3,1.8,1.1s-0.3,1.6-1.1,1.8c-1.6,0.4-3.2,0.9-4.7,1.4C75.5,36.4,75.4,36.4,75.2,36.4z
			 M84.9,33.9c-0.7,0-1.3-0.5-1.5-1.2c-0.1-0.8,0.4-1.6,1.2-1.7c1.6-0.3,3.3-0.6,5-0.8c0.8-0.1,1.6,0.5,1.7,1.3
			c0.1,0.8-0.5,1.6-1.3,1.7c-1.6,0.2-3.3,0.4-4.8,0.7C85.1,33.9,85,33.9,84.9,33.9z"/>
		<g id="Grupo_18" transform="translate(-42 60)">
			<g id="Elipse_10" transform="translate(80 20)">
				<circle class="st4" cx="6" cy="8" r="14"/>
				<path class="st5" d="M6,22C-1.7,22-8,15.7-8,8S-1.7-6,6-6S20,0.3,20,8S13.7,22,6,22z M6-3C-0.1-3-5,1.9-5,8s4.9,11,11,11
					s11-4.9,11-11S12.1-3,6-3z"/>
			</g>
			<circle id="Elipse_14" class="st5" cx="86" cy="28" r="5"/>
		</g>
		<g id="Grupo_19" transform="translate(91.773 24.773)">
			<circle id="Elipse_13" class="st4" cx="5.2" cy="7.2" r="13"/>
			<g id="Icon_feather-check-circle" transform="translate(1.102 1.102)">
				<path class="st5" d="M4,19.4C4,19.4,4,19.4,4,19.4c-3.6,0-7-1.4-9.5-3.9C-8.1,12.9-9.5,9.6-9.5,6c0-3.6,1.4-7,3.9-9.5
					C-3-6.1,0.4-7.5,4-7.5c0,0,0,0,0,0c1.9,0,3.7,0.4,5.5,1.2c0.8,0.3,1.1,1.2,0.8,2C9.9-3.6,9-3.3,8.2-3.6C6.9-4.2,5.4-4.5,4-4.5
					c0,0,0,0,0,0c-2.8,0-5.4,1.1-7.4,3.1c-2,2-3.1,4.6-3.1,7.4s1.1,5.4,3.1,7.4c2,2,4.6,3.1,7.4,3.1c0,0,0,0,0,0
					c2.8,0,5.4-1.1,7.4-3.1c2-2,3.1-4.6,3.1-7.4V4.9c0-0.8,0.7-1.5,1.5-1.5c0.8,0,1.5,0.7,1.5,1.5V6c0,3.6-1.4,7-3.9,9.5
					C10.9,18,7.6,19.4,4,19.4z"/>
				<path class="st5" d="M4,9.9c-0.4,0-0.8-0.2-1.1-0.4l-3.6-3.6c-0.6-0.6-0.6-1.5,0-2.1c0.6-0.6,1.5-0.6,2.1,0L4,6.3L14.9-4.7
					c0.6-0.6,1.5-0.6,2.1,0c0.6,0.6,0.6,1.5,0,2.1L5,9.4C4.7,9.7,4.4,9.9,4,9.9L4,9.9z"/>
			</g>
		</g>
	</g>
</g>
</svg>
