<svg xmlns="http://www.w3.org/2000/svg" xmlns:xlink="http://www.w3.org/1999/xlink" width="73" height="77" viewBox="0 0 73 77">
  <defs>
    <clipPath id="clip-path">
      <rect id="Rectángulo_382446" data-name="Rectángulo 382446" width="40.81" height="56.251" fill="none"/>
    </clipPath>
  </defs>
  <g id="Grupo_1073121" data-name="Grupo 1073121" transform="translate(-235 -732.001)">
    <rect id="Rectángulo_382411" data-name="Rectángulo 382411" width="73" height="77" rx="8" transform="translate(235 732.001)" fill="#fff"/>
    <g id="Grupo_1073117" data-name="Grupo 1073117" transform="translate(251.095 742.376)">
      <g id="Grupo_1073116" data-name="Grupo 1073116" transform="translate(0 0)" clip-path="url(#clip-path)">
        <path id="Trazado_820053" data-name="Trazado 820053" d="M2.206,37.456V2.207H27.758V13.494a1.1,1.1,0,0,0,1.1,1.1H38.6V37.456ZM35.422,52.14l-.959-1.919c-.394-.739-.644-1.289-.944-1.9h-.03c-.219.613-.488,1.163-.818,1.9l-.88,1.919H29.055l3.066-5.363-2.956-5.236h2.752l.928,1.935c.314.643.549,1.162.8,1.76h.032c.252-.676.456-1.148.724-1.76l.9-1.935h2.735l-2.986,5.172,3.144,5.426ZM23.946,52.3a6.936,6.936,0,0,1-3-.644l.487-1.981a6.127,6.127,0,0,0,2.657.659c1.1,0,1.682-.455,1.682-1.148,0-.659-.5-1.037-1.776-1.492-1.761-.613-2.909-1.588-2.909-3.129,0-1.808,1.509-3.192,4.01-3.192a6.479,6.479,0,0,1,2.7.535l-.535,1.934a5.045,5.045,0,0,0-2.217-.5c-1.038,0-1.54.472-1.54,1.023,0,.676.6.974,1.965,1.492,1.871.693,2.751,1.667,2.751,3.161,0,1.777-1.368,3.285-4.276,3.285m-4.008-.156h-6.62v-10.6h2.406v8.584h4.214Zm-10.674,0L8.3,50.221c-.393-.739-.644-1.289-.943-1.9H7.329c-.22.613-.487,1.163-.817,1.9L5.631,52.14H2.9l3.066-5.363L3.006,41.542H5.758l.928,1.935c.315.643.55,1.162.8,1.76h.031c.252-.676.456-1.148.722-1.76l.9-1.935h2.735L8.886,46.714l3.145,5.426ZM40.8,13.481a1.089,1.089,0,0,0-.262-.714L29.69.377,29.682.37a1.063,1.063,0,0,0-.219-.184c-.024-.016-.047-.03-.073-.044a1.17,1.17,0,0,0-.217-.091c-.02-.006-.039-.014-.059-.02A1.126,1.126,0,0,0,28.861,0H2.206A2.209,2.209,0,0,0,0,2.206V54.045a2.208,2.208,0,0,0,2.206,2.206H38.6a2.208,2.208,0,0,0,2.206-2.206V13.6a1.2,1.2,0,0,0-.011-.123" transform="translate(0 0)" fill="#273a89" fill-rule="evenodd"/>
        <path id="Trazado_820054" data-name="Trazado 820054" d="M26.249,24h8.163V20.6H26.249Zm8.164,3.929H26.249V24.526h8.163v3.405Zm0,7.859H26.249V32.385h8.163v3.406Zm-16.853,0h8.164V32.385H17.56Zm-8.688,0h8.164V32.385H8.872Zm0-3.93h8.164V28.456H8.872Zm0-3.929h8.164V24.526H8.872Zm0-3.929h8.164V20.6H8.872Zm8.688,3.929h8.164V24.526H17.56Zm8.164-7.859H8.348V36.314H34.936V20.073Z" transform="translate(-1.46 -3.06)" fill="#a854f3" fill-rule="evenodd"/>
      </g>
    </g>
  </g>
</svg>
