<svg xmlns="http://www.w3.org/2000/svg" xmlns:xlink="http://www.w3.org/1999/xlink" width="460" height="208" viewBox="0 0 460 208">
  <defs>
    <clipPath id="clip-path">
      <rect id="Rectángulo_382428" data-name="Rectángulo 382428" width="165.605" height="159.258" fill="none"/>
    </clipPath>
    <clipPath id="clip-path-3">
      <rect id="Rectángulo_382426" data-name="Rectángulo 382426" width="4.289" height="2.03" fill="none"/>
    </clipPath>
    <clipPath id="clip-path-4">
      <rect id="Rectángulo_382443" data-name="Rectángulo 382443" width="24.694" height="16.983" fill="#24bc86"/>
    </clipPath>
  </defs>
  <g id="Grupo_1073124" data-name="Grupo 1073124" transform="translate(-226 -549)">
    <g id="Grupo_1073123" data-name="Grupo 1073123" transform="translate(241 564)">
      <circle id="Elipse_9690" data-name="Elipse 9690" cx="83.5" cy="83.5" r="83.5" transform="translate(87.377)" fill="#beb4d0"/>
      <ellipse id="Elipse_9688" data-name="Elipse 9688" cx="199.5" cy="14" rx="199.5" ry="14" transform="translate(0 150)" fill="#beb4d0"/>
      <g id="Grupo_1073096" data-name="Grupo 1073096" transform="translate(61.184 11.02)">
        <g id="Grupo_1073095" data-name="Grupo 1073095" clip-path="url(#clip-path)">
          <g id="Grupo_1073094" data-name="Grupo 1073094">
            <g id="Grupo_1073093" data-name="Grupo 1073093" clip-path="url(#clip-path)">
              <path id="Trazado_819945" data-name="Trazado 819945" d="M38.242,109.062q.042.333.058.659v.03c.143,3.121-1.537,5.5-7.008,4.521a3.347,3.347,0,0,1-1.735-.961l0,0a29.274,29.274,0,0,1-4.943-6.607,6.14,6.14,0,0,1-.876-3.329,5.486,5.486,0,0,0-.963-1.124,2.684,2.684,0,0,0-.991-.432,2.516,2.516,0,0,0,.344,1.679c.525,1.034-1.131,2.592-2.329-.058-1-2.208-.679-3.633.465-4.105a8.443,8.443,0,0,0-.871.005c-3.98.245-3.816-3.054.318-3.053.456,0,.926.019,1.4.054a1.538,1.538,0,0,1-.075-.233,7.512,7.512,0,0,0-.78-.105c-4.042-.325-3.007-3.607.927-2.923a19.583,19.583,0,0,1,3.314.912,10.8,10.8,0,0,0-1.27-.813c-2.926-1.572-1.8-4.331,1.088-2.989a29.759,29.759,0,0,1,9.089,7.337,27.686,27.686,0,0,1,4.835,11.534" transform="translate(-3.811 -20.742)" fill="#efb3a6"/>
              <path id="Trazado_819946" data-name="Trazado 819946" d="M28.1,96.178c2.97,2.636,3.666,4.246,3.666,4.246" transform="translate(-6.488 -22.207)" fill="none" stroke="#d17a80" stroke-miterlimit="10" stroke-width="1.44"/>
              <path id="Trazado_819947" data-name="Trazado 819947" d="M22.841,103.59a4.178,4.178,0,0,1,2.229,1.592" transform="translate(-5.274 -23.918)" fill="none" stroke="#d17a80" stroke-miterlimit="10" stroke-width="1.44"/>
              <path id="Trazado_819948" data-name="Trazado 819948" d="M27.529,106.571c-.956-1.761-1.055-3.435-1.866-4.589-1.08-1.54-3.649-3.892-3.259-4.792.758-1.745,2.48-.681,4.342.879s5.188,3.606,6.66,2.9" transform="translate(-5.164 -22.233)" fill="none" stroke="#d17a80" stroke-miterlimit="10" stroke-width="1.44"/>
              <path id="Trazado_819949" data-name="Trazado 819949" d="M118.313,100.454l-.005.005c-.561,1.653-1.257,3.465-2.129,5.418a83.513,83.513,0,0,1-9.612,16.106c-1.738,2.3-3.674,4.676-5.854,7.117-.1.113-.21.231-.311.345q-1.5,1.656-3.159,3.357a12.163,12.163,0,0,1-3.057,2.327L84.72,124.015s.588-1.115,1.585-2.978c.288-.543.617-1.149.974-1.811.441-.821.934-1.721,1.455-2.69.135-.255.271-.515.418-.775q.5-.943,1.048-1.953c5.429-9.987,13.372-24.247,16.508-28.1.005-.012.017-.017.022-.023.34-.311.668-.6.98-.871l5.3,2.05,2.853,1.1c.266.39.532.814.787,1.251a46.863,46.863,0,0,1,1.664,11.232" transform="translate(-19.561 -19.584)" fill="#edb1a4"/>
              <path id="Trazado_819950" data-name="Trazado 819950" d="M88.183,136.254a15.447,15.447,0,0,1-2.372,3.266,12.184,12.184,0,0,1-3.057,2.327c-16.038,8.565-47.542-22.141-47.542-22.141l4.993-5.791,35.643,12.03,1.636.555Z" transform="translate(-8.13 -26.302)" fill="#edb1a4"/>
              <path id="Trazado_819951" data-name="Trazado 819951" d="M188.449,156.136l-69.032,1.115-4.823-70.39c-.458-3.239.187-5.078,3.233-6.273a76.958,76.958,0,0,1,11.231-3.623c1.008-.226,2.05-.441,3.131-.628a50.78,50.78,0,0,1,8.707-.77l9.516-.657s3.357.068,7.892.493c1.817.164,3.832.385,5.9.685,2.107.305,4.263.685,6.324,1.166a8.626,8.626,0,0,1,6.544,9.759Z" transform="translate(-26.428 -17.296)" fill="#ffce00"/>
              <path id="Trazado_819952" data-name="Trazado 819952" d="M168.523,76.089c-36.18,21.246-35.943,5.718-35.144.878,1.008-.227,2.05-.442,3.131-.628a50.777,50.777,0,0,1,8.706-.771l9.516-.656s3.357.068,7.892.492c1.817.164,3.832.385,5.9.685" transform="translate(-30.749 -17.297)" fill="#273a89"/>
              <path id="Trazado_819953" data-name="Trazado 819953" d="M163.525,75.4c-31.4,19.128-26.115.934-26.115.934a50.78,50.78,0,0,1,8.707-.77l9.516-.657s3.357.068,7.892.493" transform="translate(-31.65 -17.296)" fill="#efb3a6"/>
              <path id="Trazado_819954" data-name="Trazado 819954" d="M117.852,38.277s-5.64.082-5.076-4.607,5.71-4.769,5.71-4.769Z" transform="translate(-26.03 -6.673)" fill="#12263f"/>
              <path id="Trazado_819955" data-name="Trazado 819955" d="M153.562,17.6a7.18,7.18,0,0,0-5.605-1.874C147.056,8.515,135.9,8,130.208,8.7c.038-.113.073-.222.115-.34a.647.647,0,0,0,.078-.191c.437-1.937.7-4.565-.536-6.287A5.232,5.232,0,0,0,124.978.051c-3.789.5-5.268,3.85-5.667,7.29-1.93-2.185-6.167-2.409-7.939.295-2.44,3.727.153,7.05,2.32,10.026-2.08.3-5.872,1.571-4.995,4.187.994,2.963,6.238,1.763,8.368,1.226a1.821,1.821,0,0,0,.935-.84c-.844-2.048,8.107-2.7,9.292-2.8,3.093-.255,6.205-.533,9.309-.618,2.985-.082,5.82.309,7.671,3.035a89.091,89.091,0,0,1,4.692,8.68.588.588,0,0,0,.035.054,17.631,17.631,0,0,1-.635,6.388c-.16.558.507.862.907.628,4.935-2.881,6.9-7.436,6.517-13.212-.165-2.5-.345-4.993-2.229-6.79" transform="translate(-25.068 0)" fill="#12263f"/>
              <path id="Trazado_819956" data-name="Trazado 819956" d="M157.441,73.657c-11.956,3.163-18.935,5.9-17.257,1.194l.368-1.825.094-.474,1.025-5.1.988-4.9.484-2.375,12.751-1.127.681,6.421.282,2.646Z" transform="translate(-32.31 -13.636)" fill="#efb3a6"/>
              <path id="Trazado_819957" data-name="Trazado 819957" d="M157.043,68.457c-1.6.631-13.259,5.176-16.306,4.9l.094-.474,1.025-5.1,14.333-7.283Z" transform="translate(-32.495 -13.97)" fill="#d17a80"/>
              <path id="Trazado_819958" data-name="Trazado 819958" d="M118.753,35c.033.494.066.978.11,1.483.022.308.055.615.088.923a43.373,43.373,0,0,0,.9,5.428,28.58,28.58,0,0,0,1.77,5.285,19.708,19.708,0,0,0,1.867,3.274c4.351,6.186,10.714,6.856,14.932,6.46,4.867-.451,12.283-2.835,14.7-12.69a33.851,33.851,0,0,0,.637-11.009c-.033-.462-.077-.912-.132-1.363-.043-.494-.109-.978-.175-1.45-1.5-10.834-6.45-19.042-19.185-17.855C121.378,14.694,118.1,23.9,118.753,35" transform="translate(-27.401 -3.087)" fill="#edb1a4"/>
              <path id="Trazado_819959" data-name="Trazado 819959" d="M153.228,28.9s-1.483,12.822,2.687,15.581c0,0,4.552,3.042,5.517-9.1Z" transform="translate(-35.32 -6.673)" fill="#12263f"/>
              <path id="Trazado_819960" data-name="Trazado 819960" d="M146.4,30.218s-7.449,1.444-8.085-4.76c0,0-4.456,4.449-9.288.176,0,0-.982,3.94-7.043,3.072,0,0,1.358,5.215-3.638,5.868l-1.374-2.789.718-6.137,1.777-4.192,4.294-5.345,4.551-2.191,5.77-.962h4.814l5.768,1.283,4.23,3.9,3.482,4.6.968,8.927-.937.769Z" transform="translate(-27.007 -2.992)" fill="#12263f"/>
              <path id="Trazado_819961" data-name="Trazado 819961" d="M157.347,43.082a13.983,13.983,0,0,0,.535,3.334c.128.482.268.944.4,1.373a.02.02,0,0,1,.006.013c.021.067.041.128.061.194a.934.934,0,0,0,.141.288.906.906,0,0,0,.295.3,3.949,3.949,0,0,0,4.472.944,4.773,4.773,0,0,0,1.427-.817A7.6,7.6,0,0,0,167.43,44.3a6.769,6.769,0,0,0-.616-4.259,5.87,5.87,0,0,0-.9-1.359,4.145,4.145,0,0,0-1.52-1.091,3.632,3.632,0,0,0-.991-.275,5.906,5.906,0,0,0-4.07,1.178,4.322,4.322,0,0,0-1.145,1.138,5.669,5.669,0,0,0-.837,3.448" transform="translate(-36.329 -8.607)" fill="#efb3a6"/>
              <path id="Trazado_819962" data-name="Trazado 819962" d="M161.664,48.131s-2.432-7.926,3.864-5.894" transform="translate(-37.221 -9.675)" fill="none" stroke="#d17a80" stroke-miterlimit="10" stroke-width="1.484"/>
              <line id="Línea_164" data-name="Línea 164" y1="1.233" x2="2.72" transform="translate(124.004 34.792)" fill="none" stroke="#d17a80" stroke-miterlimit="10" stroke-width="1.484"/>
              <path id="Trazado_819963" data-name="Trazado 819963" d="M134.841,53.908l-6.286.613c5.109-.859,3.679-8.583,3.679-8.583" transform="translate(-29.683 -10.607)" fill="none" stroke="#d17a80" stroke-miterlimit="10" stroke-width="1.484"/>
              <g id="Grupo_1073092" data-name="Grupo 1073092" transform="translate(106.78 48.805)" opacity="0.5">
                <g id="Grupo_1073091" data-name="Grupo 1073091">
                  <g id="Grupo_1073090" data-name="Grupo 1073090" clip-path="url(#clip-path-3)">
                    <path id="Trazado_819964" data-name="Trazado 819964" d="M143.053,63.851c.685,1.028-3.675,2.27-4.173,1.263s3.465-2.327,4.173-1.263" transform="translate(-138.837 -63.457)" fill="#d17a80"/>
                  </g>
                </g>
              </g>
              <path id="Trazado_819965" data-name="Trazado 819965" d="M144.086,55.914c-1.447,3.443-5.554,4.722-9.572,4.329" transform="translate(-31.059 -12.91)" fill="none" stroke="#d17a80" stroke-miterlimit="10" stroke-width="1.484"/>
              <path id="Trazado_819966" data-name="Trazado 819966" d="M123.776,45.973c.12,1.172.87,2.056,1.675,1.974s1.362-1.1,1.242-2.271-.869-2.056-1.675-1.974-1.362,1.1-1.242,2.271" transform="translate(-28.575 -10.089)" fill="#33324f"/>
              <path id="Trazado_819967" data-name="Trazado 819967" d="M141.519,44.163c.12,1.172.87,2.056,1.675,1.974s1.362-1.1,1.242-2.271-.869-2.056-1.675-1.974-1.362,1.1-1.242,2.271" transform="translate(-32.672 -9.671)" fill="#33324f"/>
              <path id="Trazado_819968" data-name="Trazado 819968" d="M140.235,40.922c4.249.236,6.647-.943,2.983-1.447s-5.185,1.325-2.983,1.447" transform="translate(-32.143 -9.094)" fill="#33324f"/>
              <path id="Trazado_819969" data-name="Trazado 819969" d="M125.773,39.873c-3.759,2-6.429,1.931-3.315-.063s5.263-.971,3.315.063" transform="translate(-27.959 -8.929)" fill="#33324f"/>
              <path id="Trazado_819970" data-name="Trazado 819970" d="M140.3,41.046a6.339,6.339,0,0,0-2.623-2.358,3.673,3.673,0,0,0-.384-.168,6.072,6.072,0,0,0-1.965-.442c-.125-.009-.25-.014-.375-.014a6.258,6.258,0,0,0-2.349.456,6.345,6.345,0,0,0-3,2.527,6.237,6.237,0,0,0-.894,2.546h-3.453a6.238,6.238,0,0,0-.894-2.546,6.337,6.337,0,0,0-3-2.527,6.249,6.249,0,0,0-2.344-.456,6.124,6.124,0,0,0-2.343.456A6.256,6.256,0,0,0,114,40.58a4.317,4.317,0,0,0-.312.466,6.168,6.168,0,0,0-.937,2.969c0,.111-.01.221-.01.331a6.574,6.574,0,0,0,.092,1.071,6.427,6.427,0,0,0,.658,1.9v0a6.172,6.172,0,0,0,.389.625,6.333,6.333,0,0,0,3.579,2.483,6.2,6.2,0,0,0,1.378.192c.062,0,.125,0,.187,0a6.343,6.343,0,0,0,5.174-2.68,5.885,5.885,0,0,0,.922-1.955,5.345,5.345,0,0,0,.12-.576,5.759,5.759,0,0,0,.068-.865h3.367a5.133,5.133,0,0,0,.072.865,4.424,4.424,0,0,0,.12.576,5.966,5.966,0,0,0,.918,1.955,6.341,6.341,0,0,0,5.173,2.68c.1,0,.2,0,.3-.009a6.148,6.148,0,0,0,2.4-.6h0a6.3,6.3,0,0,0,2.147-1.681c.105-.125.2-.255.3-.389a6.247,6.247,0,0,0,1.042-2.531,6.027,6.027,0,0,0,.1-1.071,6.274,6.274,0,0,0-.937-3.3m-15.99,4.948a5.556,5.556,0,0,1-5.289,3.891h-.134a5.53,5.53,0,0,1-4.069-1.936,5.462,5.462,0,0,1-1.23-2.531,5.246,5.246,0,0,1-.106-1.071,5.539,5.539,0,1,1,11.077,0,4.942,4.942,0,0,1-.111,1.071,4.592,4.592,0,0,1-.139.576m14.848,1.955A5.53,5.53,0,0,1,135.2,49.88c-.082,0-.164,0-.245,0a5.553,5.553,0,0,1-5.288-3.891,4.464,4.464,0,0,1-.139-.576,4.941,4.941,0,0,1-.111-1.071,5.541,5.541,0,0,1,11.081,0,5.246,5.246,0,0,1-.105,1.071,5.522,5.522,0,0,1-1.234,2.531" transform="translate(-26.03 -8.789)" fill="#fff"/>
              <path id="Trazado_819971" data-name="Trazado 819971" d="M196.483,86.589l0,.005a77.939,77.939,0,0,1,4.612,24.078c.132,3.015.142,6.237-.015,9.68q-.186,4.017-.681,8.429l-.116-.022-14.758-2.633s-.255-1.235-.671-3.3c-.267-1.355-.607-3.069-.988-5.021-.195-.958-.393-1.977-.6-3.042-2.425-12.53-5.822-31.23-4.986-33.478l8.373-2.774c.455.132.926.288,1.4.466a46.4,46.4,0,0,1,8.425,7.612" transform="translate(-41.135 -18.128)" fill="#edb1a4"/>
              <path id="Trazado_819972" data-name="Trazado 819972" d="M177.041,135.661l-37.608,11.56-.672,7.614s55.733,8.356,52.659-17.5Z" transform="translate(-32.039 -31.323)" fill="#edb1a4"/>
              <path id="Trazado_819973" data-name="Trazado 819973" d="M120.7,155.457a18.3,18.3,0,0,0-5.408,1.032c-2.593.983-2.617-1.784-.3-2.67a10.294,10.294,0,0,0-2.993.922,1.273,1.273,0,0,1-1.6-1.967,1.387,1.387,0,0,1-1.7-.637c-.565-1.056.606-2.133,1.057-2.443,0,0-2.1-1.844,2.378-3.806s10.454-3.038,17.939.695c5.149,2.567,5.471,6.6,4.259,8.7-2.2,3.809-9.032,4.423-13.642.173" transform="translate(-25.064 -33.271)" fill="#efb3a6"/>
              <path id="Trazado_819974" data-name="Trazado 819974" d="M116.926,156.351c3.891-1.434,5.715-1.282,5.715-1.282" transform="translate(-26.998 -35.803)" fill="none" stroke="#d17a80" stroke-miterlimit="10" stroke-width="1.44"/>
              <path id="Trazado_819975" data-name="Trazado 819975" d="M110.958,154.562c5.972-2.951,9.035-2.716,9.035-2.716" transform="translate(-25.62 -35.059)" fill="none" stroke="#d17a80" stroke-miterlimit="10" stroke-width="1.44"/>
              <path id="Trazado_819976" data-name="Trazado 819976" d="M110.124,150.581a20.862,20.862,0,0,1,8.825-2.644" transform="translate(-25.427 -34.158)" fill="none" stroke="#d17a80" stroke-miterlimit="10" stroke-width="1.44"/>
              <path id="Trazado_819977" data-name="Trazado 819977" d="M205.815,120.363l-5.657-.253-20.847-.559.023-1.017-5.188-39,4.211-1.954a18.149,18.149,0,0,1,7.373.691c.455.132.926.288,1.4.467,7.943,2.955,18.449,11.91,18.682,41.627" transform="translate(-40.21 -17.885)" fill="#ffce00"/>
              <path id="Trazado_819978" data-name="Trazado 819978" d="M110.759,82.88S96.6,90.23,88.078,114.433l17.6,16.465,9.711-12.074Z" transform="translate(-20.337 -19.137)" fill="#ffce00"/>
              <line id="Línea_165" data-name="Línea 165" y1="1.601" x2="5.115" transform="translate(140.426 104.143)" fill="none" stroke="#d17a80" stroke-miterlimit="10" stroke-width="1.44"/>
              <line id="Línea_166" data-name="Línea 166" x2="7.111" y2="2.413" transform="translate(63.142 98.098)" fill="none" stroke="#d17a80" stroke-miterlimit="10" stroke-width="1.44"/>
              <path id="Trazado_819979" data-name="Trazado 819979" d="M117.677,129.409s-1-16.965,0-24.594" transform="translate(-27.068 -24.201)" fill="none" stroke="#005467" stroke-miterlimit="10" stroke-width="0.742"/>
              <line id="Línea_167" data-name="Línea 167" x1="1.956" y1="3.866" transform="translate(88.431 82.407)" fill="none" stroke="#005467" stroke-miterlimit="10" stroke-width="0.742"/>
              <path id="Trazado_819980" data-name="Trazado 819980" d="M183.954,124.782l-2.72-.073L176.74,99.65" transform="translate(-40.808 -23.008)" fill="none" stroke="#005467" stroke-miterlimit="10" stroke-width="0.742"/>
              <line id="Línea_168" data-name="Línea 168" x1="2.28" y1="2.272" transform="translate(134.337 78.193)" fill="none" stroke="#005467" stroke-miterlimit="10" stroke-width="0.742"/>
              <path id="Trazado_819981" data-name="Trazado 819981" d="M8.728,193.224v1.41a3.343,3.343,0,0,0,3.165,3.339L83.6,201.807a13.788,13.788,0,0,0,5.661-.89l25.355-9.7a3.345,3.345,0,0,0,2.149-3.123v-3.73Z" transform="translate(-2.015 -42.569)" fill="#5c97d9"/>
              <path id="Trazado_819982" data-name="Trazado 819982" d="M86.522,195.093l30.24-11.5-86.394-2.583L8.727,192.448Z" transform="translate(-2.015 -41.793)" fill="#fff"/>
              <path id="Trazado_819983" data-name="Trazado 819983" d="M124.142,189.5l-4.28,1.6-.7.266-4.285,1.6-.7.261h-.005l-5.616,2.1-1.121-2.3-.09-.187-.052-.1-.079-.165-1.789-3.668,10.745.345h.005l.776.029h.005Z" transform="translate(-24.341 -43.615)" fill="#3f3e58"/>
              <path id="Trazado_819984" data-name="Trazado 819984" d="M120.453,191.647l-.7.266-7.263-.227-.781-.022-3.731-.113.012-.283,4.421.135.788.023Z" transform="translate(-24.931 -44.163)" fill="#cdcdcd"/>
              <path id="Trazado_819985" data-name="Trazado 819985" d="M115.392,194.111l-.7.261h-.005l-6.737-.2-.091-.187-.142.051-.057-.158.148.005.294.012Z" transform="translate(-24.858 -44.764)" fill="#cdcdcd"/>
              <path id="Trazado_819986" data-name="Trazado 819986" d="M117.45,189.375l-4.336,1.607h-.006l-.7.261H112.4l-4.314,1.6-.243.091-.142.051-.057-.158-.045-.119.114-.039,3.906-1.45.7-.26,4.348-1.614h.006Z" transform="translate(-24.844 -43.719)" fill="#cdcdcd"/>
              <path id="Trazado_819987" data-name="Trazado 819987" d="M84.493,182.26,6.7,179.615.091,132.491c-.708-5.057,2.762-9.019,7.752-8.849l59.724,2.03a11.279,11.279,0,0,1,10.319,9.465Z" transform="translate(0 -28.547)" fill="#1682fb"/>
              <path id="Trazado_819988" data-name="Trazado 819988" d="M55.114,167.343a5.6,5.6,0,1,1-5.6-5.6,5.6,5.6,0,0,1,5.6,5.6" transform="translate(-10.141 -37.346)" fill="#12263f"/>
            </g>
          </g>
        </g>
      </g>
      <rect id="Rectángulo_382442" data-name="Rectángulo 382442" width="62" height="66" rx="8" transform="translate(234.696 42)" fill="#fff"/>
      <path id="Trazado_820038" data-name="Trazado 820038" d="M-6459-11068h104.684" transform="translate(6696 11149.534)" fill="none" stroke="#ffce00" stroke-linecap="round" stroke-width="5"/>
      <path id="Trazado_820039" data-name="Trazado 820039" d="M-6430.248-11078.716l10.83,10.83-10.83,10.83" transform="translate(6764.684 11149.534)" fill="none" stroke="#ffce00" stroke-linecap="round" stroke-linejoin="round" stroke-width="5"/>
      <g id="Grupo_1073113" data-name="Grupo 1073113" transform="translate(242.3 49.865)">
        <g id="Grupo_1073107" data-name="Grupo 1073107" clip-path="url(#clip-path-4)">
          <path id="Trazado_820040" data-name="Trazado 820040" d="M6.524,6.737a.772.772,0,0,0-1.088,0l-5.21,5.21a.772.772,0,0,0,0,1.088l5.21,5.21a.772.772,0,0,0,1.088-1.088L1.862,12.492,6.524,7.825a.772.772,0,0,0,0-1.088" transform="translate(0 -3.999)" fill="#24bc86"/>
          <path id="Trazado_820041" data-name="Trazado 820041" d="M47.741,6.8a.772.772,0,0,0-1.088,1.088l4.662,4.666-4.662,4.666a.772.772,0,0,0,1,1.173.788.788,0,0,0,.084-.084l5.21-5.21a.772.772,0,0,0,0-1.088Z" transform="translate(-28.481 -4.061)" fill="#24bc86"/>
          <path id="Trazado_820042" data-name="Trazado 820042" d="M29.613.032a.772.772,0,0,0-.96.519v0L24.02,15.991a.772.772,0,0,0,.519.96h0a.865.865,0,0,0,.22.031.772.772,0,0,0,.741-.552L30.134.993a.772.772,0,0,0-.519-.96h0" transform="translate(-14.73 0)" fill="#24bc86"/>
        </g>
      </g>
    </g>
    <rect id="Rectángulo_382447" data-name="Rectángulo 382447" width="460" height="208" transform="translate(226 549)" fill="none"/>
  </g>
</svg>
