<svg xmlns="http://www.w3.org/2000/svg" xmlns:xlink="http://www.w3.org/1999/xlink" width="460" height="208" viewBox="0 0 460 208">
  <defs>
    <clipPath id="clip-path">
      <rect id="Rectángulo_382441" data-name="Rectángulo 382441" width="185.328" height="152.081" fill="none"/>
    </clipPath>
    <clipPath id="clip-path-3">
      <rect id="Rectángulo_382429" data-name="Rectángulo 382429" width="4.294" height="2.032" fill="none"/>
    </clipPath>
    <clipPath id="clip-path-4">
      <rect id="Rectángulo_382430" data-name="Rectángulo 382430" width="16.325" height="12.882" fill="#98918f"/>
    </clipPath>
    <clipPath id="clip-path-5">
      <rect id="Rectángulo_382443" data-name="Rectángulo 382443" width="24.694" height="16.983" fill="#24bc86"/>
    </clipPath>
  </defs>
  <g id="Grupo_1073154" data-name="Grupo 1073154" transform="translate(-866 -549)">
    <path id="Trazado_820045" data-name="Trazado 820045" d="M-6430.248-11078.716l10.83,10.83-10.83,10.83" transform="translate(7715.248 11719.598)" fill="none" stroke="#273a89" stroke-linecap="round" stroke-linejoin="round" stroke-width="5"/>
    <g id="Grupo_1073125" data-name="Grupo 1073125" transform="translate(866 549)">
      <circle id="Elipse_9691" data-name="Elipse 9691" cx="83.5" cy="83.5" r="83.5" transform="translate(120.411 15)" fill="#beb4d0"/>
      <ellipse id="Elipse_9689" data-name="Elipse 9689" cx="211" cy="15" rx="211" ry="15" transform="translate(14 163)" fill="#beb4d0"/>
      <g id="Grupo_1073106" data-name="Grupo 1073106" transform="translate(150.166 30.039)">
        <g id="Grupo_1073105" data-name="Grupo 1073105" transform="translate(0)" clip-path="url(#clip-path)">
          <g id="Grupo_1073104" data-name="Grupo 1073104">
            <g id="Grupo_1073103" data-name="Grupo 1073103" clip-path="url(#clip-path)">
              <path id="Trazado_819989" data-name="Trazado 819989" d="M40.9,22.405S29.237,26.269,32.59,37.039c0,0-8.941-1.077-11.363,10.713,0,0-13.6-.516-12.852,13.46S24.625,67.95,24.625,67.95s3.954,12.562,14.62,6.361c0,0,6.617,8.995,13.951,0Z" transform="translate(-1.454 -3.902)" fill="#12263f"/>
              <path id="Trazado_819990" data-name="Trazado 819990" d="M81.381,27.727s9.767,7.46,3.084,16.545c0,0,8.8,1.9,7.243,13.834,0,0,13.021,3.95,7.755,16.917S81.9,76.092,81.9,76.092s-7.837,10.582-15.9,1.24c0,0-9.191,6.342-13.187-4.553Z" transform="translate(-9.2 -4.829)" fill="#12263f"/>
              <path id="Trazado_819991" data-name="Trazado 819991" d="M85.238,24.338c-.125.731-.277,1.479-.459,2.256A54.865,54.865,0,0,1,83.033,32.5a1.225,1.225,0,0,1-.052.13c-.282.8-.589,1.62-.922,2.459a2.653,2.653,0,0,1-2.352,1.695l-26.98.952c-2.074.073-3.332-2.312-4.046-4.29C45.858,25.613,40.446,7.244,59.6,1.009A20.515,20.515,0,0,1,69.97.4c7.158,1.439,18.368,6.461,15.268,23.941" transform="translate(-7.97 0)" fill="#12263f"/>
              <path id="Trazado_819992" data-name="Trazado 819992" d="M85.059,125.818a15.47,15.47,0,0,0-.3,4.03,12.182,12.182,0,0,0,.827,3.757c6.7,16.927,50.636,13.89,50.636,13.89l-.061-7.655-35-13.9-1.609-.636Z" transform="translate(-14.757 -21.824)" fill="#e8776e"/>
              <path id="Trazado_819993" data-name="Trazado 819993" d="M98.878,121.484l-13.123,6.438a12.328,12.328,0,0,1-1.882-3.355c-.564-1.481-1.082-2.928-1.565-4.343-.044-.146-.1-.3-.149-.444-1.031-3.106-1.864-6.059-2.539-8.863a83.619,83.619,0,0,1-2.411-18.625c-.027-2.143.059-4.085.2-5.824l-.006,0A47.027,47.027,0,0,1,83.409,76.8c.405-.295.823-.579,1.223-.835l.443.017,2.616.106,4.3.172q.793.955,1.615,2.154c.273.4.545.818.818,1.264,1.233,6.4,2.594,20.242,3.487,30.246.062.764.123,1.5.183,2.212.031.294.051.588.077.876s.05.56.069.832c.073.786.134,1.527.194,2.217.061.752.126,1.436.172,2.053.174,2.11.273,3.366.273,3.366" transform="translate(-13.446 -13.232)" fill="#e8776e"/>
              <line id="Línea_169" data-name="Línea 169" x2="4.327" y2="1.66" transform="translate(83.483 103.015)" fill="none" stroke="#924541" stroke-miterlimit="10" stroke-width="1.384"/>
              <path id="Trazado_819994" data-name="Trazado 819994" d="M143.1,140.276q-.248.228-.471.466l-.011.011-.01.012c-2.131,2.29-2.388,5.194,2.422,7.99a3.345,3.345,0,0,0,1.947.39v0a29.336,29.336,0,0,0,8.053-1.842,6.136,6.136,0,0,0,2.824-1.975,5.482,5.482,0,0,1,1.463-.233,2.686,2.686,0,0,1,1.036.311,2.519,2.519,0,0,1-1.35,1.06c-1.071.45-.816,2.711,1.816,1.463,2.192-1.039,2.871-2.334,2.3-3.435a8.356,8.356,0,0,1,.661.568c2.88,2.764,4.891.14,1.734-2.537-.348-.3-.72-.586-1.106-.867a1.508,1.508,0,0,0,.209-.129,7.387,7.387,0,0,1,.663.424c3.3,2.369,4.632-.806,1.185-2.832a19.653,19.653,0,0,0-3.12-1.45,10.934,10.934,0,0,1,1.5.2c3.252.7,4.18-2.14,1.1-2.986a29.808,29.808,0,0,0-11.691-.286,27.723,27.723,0,0,0-11.162,5.673" transform="translate(-24.584 -23.366)" fill="#e8776e"/>
              <path id="Trazado_819995" data-name="Trazado 819995" d="M165.44,138.355c-3.976.089-5.549.867-5.549.867" transform="translate(-27.848 -24.097)" fill="none" stroke="#924541" stroke-miterlimit="10" stroke-width="1.384"/>
              <path id="Trazado_819996" data-name="Trazado 819996" d="M165.3,146.726a4.183,4.183,0,0,0-2.733-.228" transform="translate(-28.315 -25.497)" fill="none" stroke="#924541" stroke-miterlimit="10" stroke-width="1.384"/>
              <path id="Trazado_819997" data-name="Trazado 819997" d="M157.6,145.646c1.87-.725,3.031-1.939,4.4-2.3,1.822-.475,5.307-.606,5.592-1.548.552-1.823-1.453-2.126-3.885-2.141s-6.3-.608-6.966-2.1" transform="translate(-27.299 -23.96)" fill="none" stroke="#924541" stroke-miterlimit="10" stroke-width="1.384"/>
              <path id="Trazado_819998" data-name="Trazado 819998" d="M82.889,73.771a3.609,3.609,0,0,1-.034.7l-2.6,37.9-2.233,32.572L8.914,143.824l11.391-69.2a8.639,8.639,0,0,1,6.552-9.771c2.063-.481,4.222-.861,6.331-1.167.51-.074,1.021-.142,1.52-.21,1.06-.136,2.091-.249,3.077-.352.448-.045.884-.085,1.31-.125.306-.028.612-.056.907-.079C44.076,62.56,47,62.5,47,62.5l9.528.657a50.1,50.1,0,0,1,5.48.306c.13.011.261.028.391.045.085.011.164.017.244.028.233.034.459.063.686.091.652.091,1.286.192,1.915.3q.876.152,1.718.323l.006.006c.476.1.946.2,1.411.3,1.6.363,3.094.777,4.472,1.2.663.2,1.088.33,1.377.408a.2.2,0,0,1,.051.012c.249.074.391.108.493.136a.635.635,0,0,1,.085.023,3.778,3.778,0,0,1,.42.159c.028.011.063.028.091.04,1.558.663,4.466,2.459,7.527,7.232" transform="translate(-1.553 -10.886)" fill="#273a89"/>
              <path id="Trazado_819999" data-name="Trazado 819999" d="M71.2,71.977l1.984-8.15c.063.017.069-.028.057-.1.085.012.164.017.244.029.232.034.459.062.685.09.653.091,1.287.193,1.916.3q.876.154,1.719.323l0,.006c.477.1.947.2,1.411.3,9.381,11.778-8.02,7.2-8.02,7.2" transform="translate(-12.401 -11.099)" fill="#fff"/>
              <path id="Trazado_820000" data-name="Trazado 820000" d="M66.294,71.154a10.3,10.3,0,0,1-.606,1.008c-2.273,3.4-10.922,13.07-25.54-8.6,1.06-.135,2.092-.249,3.078-.351.448-.045.884-.085,1.31-.125.306-.028.611-.057.907-.079l20.319,7.94Z" transform="translate(-6.993 -10.973)" fill="#fff"/>
              <path id="Trazado_820001" data-name="Trazado 820001" d="M43.875,63.121c.448-.045.884-.085,1.309-.125,4.54-.425,7.9-.493,7.9-.493l9.527.657a50.1,50.1,0,0,1,5.481.306c.437.068.873.135,1.3.21,0,0,5.214,17.973-25.516-.556" transform="translate(-7.642 -10.886)" fill="#fab3a4"/>
              <g id="Grupo_1073099" data-name="Grupo 1073099" transform="translate(55.47 43.85)" opacity="0.5">
                <g id="Grupo_1073098" data-name="Grupo 1073098">
                  <g id="Grupo_1073097" data-name="Grupo 1073097" clip-path="url(#clip-path-3)">
                    <path id="Trazado_820002" data-name="Trazado 820002" d="M67.242,53.492c-.685,1.029,3.68,2.273,4.178,1.264s-3.468-2.329-4.178-1.264" transform="translate(-67.169 -53.098)" fill="#924541"/>
                  </g>
                </g>
              </g>
              <path id="Trazado_820003" data-name="Trazado 820003" d="M106.178,106.565s-2.7,1.74-5.906,3.525a53.419,53.419,0,0,1-6.246,3.049c-1.644.629-3.022.941-3.753.641L88.2,71.867l-.244-4.931a.152.152,0,0,1,.034.006.2.2,0,0,1,.051.012,3.3,3.3,0,0,1,.493.136.522.522,0,0,1,.085.022c.125.045.261.1.42.159l.091.04A15.691,15.691,0,0,1,95.1,72.344q.764.977,1.553,2.2c.261.409.521.833.782,1.287,3.361,5.759,6.79,15.213,8.74,30.737" transform="translate(-15.319 -11.658)" fill="#273a89"/>
              <path id="Trazado_820004" data-name="Trazado 820004" d="M91.693,88.818s5.291,15.231,2.985,28.134" transform="translate(-15.97 -15.469)" fill="none" stroke="#596ab1" stroke-miterlimit="10" stroke-width="1.106"/>
              <line id="Línea_170" data-name="Línea 170" y1="2.775" x2="1.31" transform="translate(76.816 74.261)" fill="none" stroke="#596ab1" stroke-miterlimit="10" stroke-width="1.106"/>
              <path id="Trazado_820005" data-name="Trazado 820005" d="M20.932,69.122c.04-.034.079-.063.119-.091.283-.21.55-.4.805-.567.476-.176.946-.334,1.4-.465l8.388,2.777c.833,2.25-2.568,20.971-4.993,33.519-.21,1.066-.408,2.086-.6,3.044-.345,1.752-.652,3.3-.907,4.585-.028.154-.056.3-.085.443-.414,2.069-.669,3.3-.669,3.3L9.613,118.307l-.119.023q-.323-2.857-.51-5.555c-.069-.981-.125-1.938-.17-2.885-.159-3.445-.148-6.671-.017-9.692a79.823,79.823,0,0,1,3.956-22.24Z" transform="translate(-1.515 -11.844)" fill="#e1c4be"/>
              <path id="Trazado_820006" data-name="Trazado 820006" d="M24.341,121.331l35.88,16.256-.3,7.647S3.513,146.455,9.848,121.163Z" transform="translate(-1.629 -21.103)" fill="#e1c4be"/>
              <path id="Trazado_820007" data-name="Trazado 820007" d="M81.2,148.02a18.316,18.316,0,0,1,5.239,1.712c2.449,1.3,2.825-1.44.633-2.615a10.308,10.308,0,0,1,2.856,1.3,1.275,1.275,0,0,0,1.835-1.75,1.388,1.388,0,0,0,1.767-.417c.695-.977-.33-2.2-.739-2.56,0,0,2.325-1.564-1.879-4.081s-10-4.345-17.9-1.589c-5.44,1.9-6.271,5.863-5.335,8.1,1.7,4.062,8.408,5.54,13.525,1.9" transform="translate(-11.73 -23.799)" fill="#e1c4be"/>
              <path id="Trazado_820008" data-name="Trazado 820008" d="M90.074,148.905c-3.682-1.918-5.513-2-5.513-2" transform="translate(-14.728 -25.587)" fill="none" stroke="#d17a80" stroke-miterlimit="10" stroke-width="1.384"/>
              <path id="Trazado_820009" data-name="Trazado 820009" d="M95.1,147.966c-5.556-3.689-8.628-3.844-8.628-3.844" transform="translate(-15.06 -25.102)" fill="none" stroke="#d17a80" stroke-miterlimit="10" stroke-width="1.384"/>
              <path id="Trazado_820010" data-name="Trazado 820010" d="M96.384,144.382a20.88,20.88,0,0,0-8.428-3.746" transform="translate(-15.319 -24.495)" fill="none" stroke="#d17a80" stroke-miterlimit="10" stroke-width="1.384"/>
              <line id="Línea_171" data-name="Línea 171" x1="4.309" y1="1.965" transform="translate(20.991 99.435)" fill="none" stroke="#d17a80" stroke-miterlimit="10" stroke-width="1.384"/>
              <path id="Trazado_820011" data-name="Trazado 820011" d="M24.77,65.52S4.693,71,0,109.609c0,0,17.99,1.728,26.854-1.158l6.3-38.8Z" transform="translate(0 -11.412)" fill="#273a89"/>
              <path id="Trazado_820012" data-name="Trazado 820012" d="M29.172,113.437l2.764-.705L33.512,90.1" transform="translate(-5.081 -15.693)" fill="none" stroke="#596ab1" stroke-miterlimit="10" stroke-width="1.106"/>
              <line id="Línea_172" data-name="Línea 172" y1="2.65" x2="2.43" transform="translate(28.107 76.409)" fill="none" stroke="#596ab1" stroke-miterlimit="10" stroke-width="1.106"/>
              <path id="Trazado_820013" data-name="Trazado 820013" d="M50.122,63.188c11.97,3.166,18.958,5.911,17.277,1.2l-.368-1.828-.094-.474-1.027-5.1-.989-4.9L64.436,49.7,51.67,48.569,50.988,55l-.282,2.648Z" transform="translate(-8.73 -8.459)" fill="#fab3a4"/>
              <g id="Grupo_1073102" data-name="Grupo 1073102" transform="translate(41.976 41.226)" opacity="0.231">
                <g id="Grupo_1073101" data-name="Grupo 1073101">
                  <g id="Grupo_1073100" data-name="Grupo 1073100" clip-path="url(#clip-path-4)">
                    <path id="Trazado_820014" data-name="Trazado 820014" d="M50.829,57.882c1.6.632,13.275,5.182,16.325,4.91l-.094-.474-1.027-5.1-14.35-7.291Z" transform="translate(-50.829 -49.921)" fill="#98918f"/>
                  </g>
                </g>
              </g>
              <path id="Trazado_820015" data-name="Trazado 820015" d="M83.646,27.625c-.033.495-.066.979-.11,1.485-.022.308-.055.616-.088.924a43.357,43.357,0,0,1-.9,5.434,28.6,28.6,0,0,1-1.771,5.291,19.692,19.692,0,0,1-1.87,3.278C74.549,50.231,68.18,50.9,63.956,50.506c-4.873-.452-12.3-2.838-14.718-12.705A33.876,33.876,0,0,1,48.6,26.778c.033-.462.077-.913.132-1.364.044-.495.11-.979.176-1.452C50.4,13.116,55.365,4.9,68.114,6.087,81.017,7.3,84.3,16.515,83.646,27.625" transform="translate(-8.436 -1.04)" fill="#fab3a4"/>
              <path id="Trazado_820016" data-name="Trazado 820016" d="M74.335,44.318l6.293.614c-5.114-.86-3.682-8.594-3.682-8.594" transform="translate(-12.947 -6.329)" fill="none" stroke="#d17a80" stroke-miterlimit="10" stroke-width="1.384"/>
              <path id="Trazado_820017" data-name="Trazado 820017" d="M85.787,36.526c-.12,1.174-.87,2.058-1.677,1.975s-1.363-1.1-1.244-2.274.87-2.058,1.677-1.975,1.363,1.1,1.244,2.274" transform="translate(-14.43 -5.965)" fill="#d17a80"/>
              <path id="Trazado_820018" data-name="Trazado 820018" d="M69.244,34.838c-.12,1.174-.87,2.058-1.677,1.975s-1.363-1.1-1.244-2.274.87-2.058,1.677-1.975,1.363,1.1,1.244,2.274" transform="translate(-11.549 -5.671)" fill="#d17a80"/>
              <path id="Trazado_820019" data-name="Trazado 820019" d="M83,28.761c-1.031,1.4,3.873,3.092,4.678,1.723S84.066,27.314,83,28.761" transform="translate(-14.432 -4.916)" fill="#d17a80"/>
              <path id="Trazado_820020" data-name="Trazado 820020" d="M68.852,26.584c.742,1.57-4.4,2.288-4.922.79s4.155-2.414,4.922-.79" transform="translate(-11.128 -4.481)" fill="#d17a80"/>
              <path id="Trazado_820021" data-name="Trazado 820021" d="M67.387,47.135a4.749,4.749,0,0,0,8.884,2.185Z" transform="translate(-11.737 -8.21)" fill="#d17a80"/>
              <path id="Trazado_820023" data-name="Trazado 820023" d="M85.587,25.261c-.125.731-.277,1.479-.459,2.256a54.866,54.866,0,0,1-1.745,5.906,1.225,1.225,0,0,1-.052.13c-2.317-3.741-.628-12.577-.628-12.577-7.107-.714-11.727-6.308-11.727-6.308-5.044,2.425-12.656,1.6-12.656,1.6-1.48,7.6-4.744,11.29-6.4,12.735a.61.61,0,0,1-1.009-.464L50.9,26.043,47.77,24.3l1.709-6.8,2.054-6.4,9.077-5.8,14.051.794,4.783,4.3,5.318,6.325Z" transform="translate(-8.32 -0.923)" fill="#12263f"/>
              <path id="Trazado_820024" data-name="Trazado 820024" d="M52.117,30.622a4.312,4.312,0,0,0-1.146-1.14A5.912,5.912,0,0,0,46.9,28.3a3.593,3.593,0,0,0-.992.275,4.132,4.132,0,0,0-1.522,1.093,5.836,5.836,0,0,0-.9,1.36,6.773,6.773,0,0,0-.617,4.263,7.606,7.606,0,0,0,2.748,4.417,4.769,4.769,0,0,0,1.428.818,3.955,3.955,0,0,0,4.478-.945.915.915,0,0,0,.295-.3.966.966,0,0,0,.14-.288c.02-.066.04-.126.06-.194a.02.02,0,0,1,.007-.013c.135-.429.275-.891.4-1.374a14.023,14.023,0,0,0,.537-3.338,5.676,5.676,0,0,0-.838-3.452" transform="translate(-7.446 -4.923)" fill="#fab3a4"/>
              <path id="Trazado_820025" data-name="Trazado 820025" d="M50.139,38.81s2.435-7.936-3.868-5.9" transform="translate(-8.059 -5.674)" fill="none" stroke="#d17a80" stroke-miterlimit="10" stroke-width="1.384"/>
              <line id="Línea_173" data-name="Línea 173" x1="2.723" y1="1.235" transform="translate(39.797 29.468)" fill="none" stroke="#d17a80" stroke-miterlimit="10" stroke-width="1.384"/>
              <path id="Trazado_820028" data-name="Trazado 820028" d="M70.826,74.143a.445.445,0,0,0-.561-.365.432.432,0,0,0-.6.069,17.3,17.3,0,0,0-4.146,9.031c-.21,1.991.177,4.81,2.307,5.682,1.942.794,3.407-1.226,3.928-2.861,1.125-3.535-.387-8.033-.923-11.556M67.184,86.886C65.7,85.3,66.419,82.18,67,80.364a17.5,17.5,0,0,1,3.02-5.5c.329,2.114.686,4.228.96,6.35a12.242,12.242,0,0,1,.143,3.048c-.169,1.373-1.469,5.261-3.941,2.624" transform="translate(-11.402 -12.834)" fill="#fff"/>
              <path id="Trazado_820029" data-name="Trazado 820029" d="M75.107,85.209c1.092,1.325,3.2,2.655,4.71,1.2,1.654-1.6.965-4.362.031-6.133A17.31,17.31,0,0,0,72.64,73.43a.431.431,0,0,0-.587.159.445.445,0,0,0-.384.548c.812,3.47,1.08,8.209,3.438,11.072m.045-1.566a12.248,12.248,0,0,1-1-2.883c-.534-2.071-.989-4.167-1.469-6.252a17.5,17.5,0,0,1,4.848,3.982c1.217,1.469,3.047,4.1,2.255,6.124-1.314,3.367-3.966.241-4.634-.971" transform="translate(-12.48 -12.779)" fill="#fff"/>
              <path id="Trazado_820030" data-name="Trazado 820030" d="M73.9,81.341c-.037-.58-.944-.583-.907,0a141.884,141.884,0,0,1-.391,23.018c-.057.581.851.576.907,0A141.979,141.979,0,0,0,73.9,81.341" transform="translate(-12.645 -14.091)" fill="#fff"/>
              <path id="Trazado_820031" data-name="Trazado 820031" d="M72.845,82.345c-.163-.557.689-.87.852-.309a141.99,141.99,0,0,0,8.2,21.51c.251.526-.6.832-.852.309a141.988,141.988,0,0,1-8.2-21.51" transform="translate(-12.684 -14.237)" fill="#fff"/>
              <path id="Trazado_820032" data-name="Trazado 820032" d="M188.923,147.53H90.8l8.1-65.99h98.119Z" transform="translate(-15.815 -14.202)" fill="#111d2b"/>
              <path id="Trazado_820033" data-name="Trazado 820033" d="M193.909,147.53H95.79l8.1-65.99h98.119Z" transform="translate(-16.684 -14.202)" fill="#1682fb"/>
              <path id="Trazado_820034" data-name="Trazado 820034" d="M140.882,179l20.154-5.412,2.136,6.081Z" transform="translate(-24.538 -30.234)" fill="#1682fb"/>
              <path id="Trazado_820035" data-name="Trazado 820035" d="M148.353,129.82h15.924l10.285,34.085a8.368,8.368,0,0,1-8.012,10.787h-5.807Z" transform="translate(-25.839 -22.611)" fill="#fff"/>
              <path id="Trazado_820036" data-name="Trazado 820036" d="M151.785,129.82h15.924l11.022,36.526a6.476,6.476,0,0,1-6.2,8.347h-8.356Z" transform="translate(-26.436 -22.611)" fill="#273a89"/>
              <rect id="Rectángulo_382431" data-name="Rectángulo 382431" width="22.289" height="3.331" transform="translate(116.344 148.751)" fill="#273a89"/>
              <path id="Trazado_820037" data-name="Trazado 820037" d="M165.552,111.388a6.906,6.906,0,1,1-6.906-6.906,6.906,6.906,0,0,1,6.906,6.906" transform="translate(-26.428 -18.198)" fill="#273a89"/>
              <rect id="Rectángulo_382432" data-name="Rectángulo 382432" width="9.158" height="3.643" transform="translate(42.353 137.339)" fill="#273a89"/>
              <rect id="Rectángulo_382433" data-name="Rectángulo 382433" width="9.158" height="3.643" transform="translate(54.859 137.339)" fill="#273a89"/>
              <rect id="Rectángulo_382434" data-name="Rectángulo 382434" width="9.158" height="3.643" transform="translate(67.365 137.339)" fill="#273a89"/>
              <rect id="Rectángulo_382435" data-name="Rectángulo 382435" width="9.158" height="3.643" transform="translate(79.871 137.339)" fill="#273a89"/>
              <rect id="Rectángulo_382436" data-name="Rectángulo 382436" width="9.158" height="3.643" transform="translate(92.376 137.339)" fill="#273a89"/>
              <rect id="Rectángulo_382437" data-name="Rectángulo 382437" width="9.158" height="3.643" transform="translate(104.882 137.339)" fill="#273a89"/>
              <rect id="Rectángulo_382438" data-name="Rectángulo 382438" width="9.158" height="3.643" transform="translate(117.388 137.339)" fill="#273a89"/>
              <rect id="Rectángulo_382439" data-name="Rectángulo 382439" width="88.009" height="5.004" transform="translate(40.362 139.706)" fill="#273a89"/>
            </g>
          </g>
        </g>
      </g>
      <rect id="Rectángulo_382411" data-name="Rectángulo 382411" width="62" height="66" rx="8" transform="translate(314.791 57)" fill="#fff"/>
      <g id="Grupo_1073109" data-name="Grupo 1073109" transform="translate(327.205 63.865)">
        <g id="Grupo_1073107" data-name="Grupo 1073107" clip-path="url(#clip-path-5)">
          <path id="Trazado_820040" data-name="Trazado 820040" d="M6.524,6.737a.772.772,0,0,0-1.088,0l-5.21,5.21a.772.772,0,0,0,0,1.088l5.21,5.21a.772.772,0,0,0,1.088-1.088L1.862,12.492,6.524,7.825a.772.772,0,0,0,0-1.088" transform="translate(0 -3.999)" fill="#24bc86"/>
          <path id="Trazado_820041" data-name="Trazado 820041" d="M47.741,6.8a.772.772,0,0,0-1.088,1.088l4.662,4.666-4.662,4.666a.772.772,0,0,0,1,1.173.788.788,0,0,0,.084-.084l5.21-5.21a.772.772,0,0,0,0-1.088Z" transform="translate(-28.481 -4.061)" fill="#24bc86"/>
          <path id="Trazado_820042" data-name="Trazado 820042" d="M29.613.032a.772.772,0,0,0-.96.519v0L24.02,15.991a.772.772,0,0,0,.519.96h0a.865.865,0,0,0,.22.031.772.772,0,0,0,.741-.552L30.134.993a.772.772,0,0,0-.519-.96h0" transform="translate(-14.73 0)" fill="#24bc86"/>
        </g>
      </g>
      <g id="Grupo_1073111" data-name="Grupo 1073111" transform="translate(315 90)">
        <g id="Grupo_1073112" data-name="Grupo 1073112">
          <path id="Trazado_820043" data-name="Trazado 820043" d="M0,2C6.9,2,6.9,14.712,13.8,14.712S20.694,2,27.592,2s6.9,12.712,13.8,12.712S48.284,2,55.182,2s6.9,12.712,13.8,12.712S75.877,2,82.775,2s6.9,12.712,13.8,12.712" transform="translate(0 -2)" fill="none" stroke="#273a89" stroke-width="4"/>
          <path id="Trazado_820044" data-name="Trazado 820044" d="M0,2C6.9,2,6.9,14.712,13.8,14.712S20.694,2,27.592,2s6.9,12.712,13.8,12.712S48.284,2,55.182,2s6.9,12.712,13.8,12.712S75.877,2,82.775,2c5,0,6.377,6.682,9.586,10.6a5.325,5.325,0,0,0,4.211,2.116H112" transform="translate(0 -2)" fill="none" stroke="#273a89" stroke-miterlimit="10" stroke-width="4"/>
        </g>
      </g>
      <rect id="Rectángulo_382448" data-name="Rectángulo 382448" width="460" height="208" fill="none"/>
    </g>
  </g>
</svg>
