<svg xmlns="http://www.w3.org/2000/svg" width="73" height="77" viewBox="0 0 73 77">
  <g id="Grupo_1073127" data-name="Grupo 1073127" transform="translate(-194 -1411.001)">
    <rect id="Rectángulo_382263" data-name="Rectángulo 382263" width="73" height="77" rx="8" transform="translate(194 1411.001)" fill="#fff"/>
    <g id="Grupo_1073085" data-name="Grupo 1073085" transform="translate(199.782 1417)">
      <path id="Trazado_819932" data-name="Trazado 819932" d="M39.459,0A10.762,10.762,0,1,0,50.217,10.759,10.758,10.758,0,0,0,39.459,0M46.33,16.225a7.519,7.519,0,0,0-13.742,0,8.777,8.777,0,1,1,13.742,0" transform="translate(-8.741 0)" fill="#3ee2a8" fill-rule="evenodd"/>
      <path id="Trazado_819933" data-name="Trazado 819933" d="M13.765,27.937a3.9,3.9,0,1,1-3.9,3.9,3.9,3.9,0,0,1,3.9-3.9" transform="translate(-3.004 -8.508)" fill="#ffce00" fill-rule="evenodd"/>
      <path id="Trazado_819934" data-name="Trazado 819934" d="M71.157,27.937a3.9,3.9,0,1,1-3.9,3.9,3.9,3.9,0,0,1,3.9-3.9" transform="translate(-20.483 -8.508)" fill="#ffce00" fill-rule="evenodd" style="mix-blend-mode: darken;isolation: isolate"/>
      <path id="Trazado_819935" data-name="Trazado 819935" d="M42.461,77.119a3.9,3.9,0,1,1-3.9,3.9,3.9,3.9,0,0,1,3.9-3.9" transform="translate(-11.744 -23.487)" fill="#ffce00" fill-rule="evenodd" style="mix-blend-mode: darken;isolation: isolate"/>
      <path id="Trazado_819936" data-name="Trazado 819936" d="M45.874,51.122,38.4,46.809v15.2a5.925,5.925,0,0,0-1.974,0v-15.2l-7.472,4.314a12.686,12.686,0,0,0-.989-1.708L35.441,45.1,21.993,37.356a5.883,5.883,0,0,0,.986-1.709l13.45,7.744V33.743c.325.025.655.038.987.038s.661-.013.987-.038v9.648l13.45-7.744a5.867,5.867,0,0,0,.986,1.709L39.393,45.1l7.471,4.314a12.8,12.8,0,0,0-.99,1.711" transform="translate(-6.698 -10.277)" fill="#1682fb" fill-rule="evenodd"/>
      <path id="Trazado_819937" data-name="Trazado 819937" d="M17.611,60.187a3.8,3.8,0,1,1-3.8-3.8,3.8,3.8,0,0,1,3.8,3.8" transform="translate(-3.049 -17.174)" fill="#3ee2a8" fill-rule="evenodd"/>
      <path id="Trazado_819938" data-name="Trazado 819938" d="M10.759,51.16A10.762,10.762,0,1,0,21.524,61.926,10.763,10.763,0,0,0,10.759,51.16M17.63,67.392a7.515,7.515,0,0,0-13.742,0,8.783,8.783,0,1,1,13.742,0" transform="translate(0 -15.581)" fill="#3ee2a8" fill-rule="evenodd"/>
      <path id="Trazado_819939" data-name="Trazado 819939" d="M68.156,51.16A10.762,10.762,0,1,0,78.914,61.926,10.765,10.765,0,0,0,68.156,51.16m6.871,16.232a7.515,7.515,0,0,0-13.742,0,8.777,8.777,0,1,1,13.742,0" transform="translate(-17.478 -15.581)" fill="#3ee2a8" fill-rule="evenodd"/>
      <path id="Trazado_819940" data-name="Trazado 819940" d="M17.611,60.187a3.8,3.8,0,1,1-3.8-3.8,3.8,3.8,0,0,1,3.8,3.8" transform="translate(-3.049 -17.174)" fill="#3ee2a8" fill-rule="evenodd"/>
      <path id="Trazado_819941" data-name="Trazado 819941" d="M71.2,56.39a3.8,3.8,0,1,0,3.8,3.8,3.8,3.8,0,0,0-3.8-3.8" transform="translate(-20.527 -17.174)" fill="#3ee2a8" fill-rule="evenodd"/>
      <path id="Trazado_819942" data-name="Trazado 819942" d="M46.3,9.024a3.8,3.8,0,1,1-3.8-3.8,3.8,3.8,0,0,1,3.8,3.8" transform="translate(-11.789 -1.59)" fill="#3ee2a8" fill-rule="evenodd"/>
    </g>
  </g>
</svg>
