<svg xmlns="http://www.w3.org/2000/svg" width="73" height="77" viewBox="0 0 73 77">
  <g id="Grupo_1073122" data-name="Grupo 1073122" transform="translate(-885 -732.001)">
    <rect id="Rectángulo_382412" data-name="Rectángulo 382412" width="73" height="77" rx="8" transform="translate(885 732.001)" fill="#fff"/>
    <g id="Grupo_1073120" data-name="Grupo 1073120">
      <path id="Trazado_820055" data-name="Trazado 820055" d="M51.247,213.324l-2.749-.459a.809.809,0,0,1-.64-.569A22.087,22.087,0,0,0,46,207.806a.812.812,0,0,1,.048-.857l1.622-2.268a2.147,2.147,0,0,0-.231-2.773l-4.321-4.321a2.146,2.146,0,0,0-2.773-.23l-2.267,1.62a.812.812,0,0,1-.858.049,22.091,22.091,0,0,0-4.489-1.861.809.809,0,0,1-.57-.64l-.459-2.749a2.143,2.143,0,0,0-2.122-1.8H23.466a2.143,2.143,0,0,0-2.122,1.8l-.459,2.749a.809.809,0,0,1-.569.64,22.086,22.086,0,0,0-4.49,1.861.812.812,0,0,1-.857-.048L12.7,197.357a2.147,2.147,0,0,0-2.773.231l-4.321,4.321a2.146,2.146,0,0,0-.23,2.773L7,206.948a.812.812,0,0,1,.049.858,22.1,22.1,0,0,0-1.861,4.49.809.809,0,0,1-.64.57l-2.749.459A2.143,2.143,0,0,0,0,215.446v6.112a2.143,2.143,0,0,0,1.8,2.122l2.749.459a.809.809,0,0,1,.64.569,22.078,22.078,0,0,0,1.861,4.49.812.812,0,0,1-.048.857l-1.622,2.268a2.147,2.147,0,0,0,.231,2.772l4.321,4.321a2.146,2.146,0,0,0,2.773.23l2.267-1.62a.812.812,0,0,1,.858-.049,22.1,22.1,0,0,0,4.489,1.861.809.809,0,0,1,.57.64l.459,2.749a2.143,2.143,0,0,0,2.122,1.8h6.112a2.143,2.143,0,0,0,2.122-1.8l.459-2.749a.809.809,0,0,1,.569-.64,22.078,22.078,0,0,0,4.49-1.861.81.81,0,0,1,.857.048l2.268,1.622a2.147,2.147,0,0,0,2.773-.231l4.321-4.321a2.145,2.145,0,0,0,.23-2.772l-1.62-2.267A.812.812,0,0,1,46,229.2a22.091,22.091,0,0,0,1.861-4.49.809.809,0,0,1,.64-.57l2.749-.459a2.143,2.143,0,0,0,1.8-2.122v-6.112a2.143,2.143,0,0,0-1.8-2.122M42.319,218.5a15.8,15.8,0,1,1-15.8-15.8,15.8,15.8,0,0,1,15.8,15.8" transform="translate(895 551.998)" fill="#273a89"/>
      <path id="Trazado_820056" data-name="Trazado 820056" d="M-4221.013-10974.829l-4.8-4.8,4.8-4.8" transform="translate(5136.415 11749.884)" fill="none" stroke="#a854f3" stroke-width="2.5"/>
      <path id="Trazado_820057" data-name="Trazado 820057" d="M-4225.816-10974.829l4.8-4.8-4.8-4.8" transform="translate(5153.414 11749.884)" fill="none" stroke="#a854f3" stroke-width="2.5"/>
      <path id="Trazado_820058" data-name="Trazado 820058" d="M-4215.665-10977.9c.383-.765,7.229-18.174,7.229-18.174" transform="translate(5133.55 11757.49)" fill="none" stroke="#a854f3" stroke-width="3"/>
    </g>
  </g>
</svg>
