<svg xmlns="http://www.w3.org/2000/svg" xmlns:xlink="http://www.w3.org/1999/xlink" width="73" height="77" viewBox="0 0 73 77">
  <defs>
    <clipPath id="clip-path">
      <rect id="Rectángulo_382424" data-name="Rectángulo 382424" width="49" height="49" transform="translate(0.144 0.144)" fill="#a854f3"/>
    </clipPath>
  </defs>
  <g id="Grupo_1073128" data-name="Grupo 1073128" transform="translate(-194 -1780.001)">
    <rect id="Rectángulo_382362" data-name="Rectángulo 382362" width="73" height="77" rx="8" transform="translate(194 1780.001)" fill="#fff"/>
    <g id="Grupo_1073087" data-name="Grupo 1073087" transform="translate(207.856 1793.856)">
      <g id="Grupo_1073086" data-name="Grupo 1073086" clip-path="url(#clip-path)">
        <path id="Trazado_819943" data-name="Trazado 819943" d="M24.572,0A24.572,24.572,0,1,0,49.144,24.572,24.6,24.6,0,0,0,24.572,0m8.479,19.155a8.558,8.558,0,0,1-7.94,8.507l.021,3.419a1.755,1.755,0,0,1-3.51.016l-.032-5.083A1.755,1.755,0,0,1,23.1,24.266a9.213,9.213,0,0,1,1.411.011,5.122,5.122,0,1,0-4.935-6.1,1.757,1.757,0,0,1-3.452-.651,8.429,8.429,0,0,1,8.447-7.006,8.747,8.747,0,0,1,8.481,8.632M23.438,35.376a1.586,1.586,0,1,1-1.576,1.583,1.58,1.58,0,0,1,1.576-1.583" fill="#a854f3"/>
      </g>
    </g>
  </g>
</svg>
