<svg xmlns="http://www.w3.org/2000/svg" xmlns:xlink="http://www.w3.org/1999/xlink" width="73" height="77" viewBox="0 0 73 77">
  <defs>
    <clipPath id="clip-path">
      <rect id="Rectángulo_382445" data-name="Rectángulo 382445" width="61" height="55" fill="#273a89"/>
    </clipPath>
  </defs>
  <g id="Grupo_1073126" data-name="Grupo 1073126" transform="translate(-220 -1267.001)">
    <rect id="Rectángulo_382364" data-name="Rectángulo 382364" width="73" height="77" rx="8" transform="translate(220 1267.001)" fill="#fff"/>
    <g id="Grupo_1073115" data-name="Grupo 1073115" transform="translate(228 1275)">
      <g id="Grupo_1073114" data-name="Grupo 1073114" clip-path="url(#clip-path)">
        <path id="Trazado_820046" data-name="Trazado 820046" d="M45.845,49.826v2.119H14.832V26.261a12.92,12.92,0,0,0,6.935-3.082H39.488a1.7,1.7,0,0,0,1.669-1.669,1.658,1.658,0,0,0-1.669-1.669h-14.9a13.6,13.6,0,0,0,1.734-5.072H45.845V33l3.275-3.66V14.126a2.576,2.576,0,0,0-2.568-2.568H26.261a13.181,13.181,0,1,0-14.7,14.7v26.39a2.576,2.576,0,0,0,2.568,2.568H46.487a2.576,2.576,0,0,0,2.568-2.568V46.615l-2.119,2.312a2.138,2.138,0,0,1-1.092.9m-42.57-36.6a9.952,9.952,0,1,1,9.952,9.952,9.961,9.961,0,0,1-9.952-9.952" fill="#273a89"/>
        <path id="Trazado_820047" data-name="Trazado 820047" d="M32.069,46.539h18.3a1.658,1.658,0,0,0,1.669-1.669A1.619,1.619,0,0,0,50.369,43.2h-18.3a1.669,1.669,0,0,0,0,3.339" transform="translate(-10.881 -15.462)" fill="#273a89"/>
        <path id="Trazado_820048" data-name="Trazado 820048" d="M52.038,57.269A1.658,1.658,0,0,0,50.369,55.6h-18.3a1.669,1.669,0,0,0,0,3.339h18.3a1.745,1.745,0,0,0,1.669-1.669" transform="translate(-10.881 -19.9)" fill="#273a89"/>
        <path id="Trazado_820049" data-name="Trazado 820049" d="M30.4,69.6a1.658,1.658,0,0,0,1.669,1.669h15.8L48.443,68H32.069A1.566,1.566,0,0,0,30.4,69.6" transform="translate(-10.881 -24.336)" fill="#273a89"/>
        <rect id="Rectángulo_382444" data-name="Rectángulo 382444" width="14.638" height="6.228" transform="matrix(0.667, -0.745, 0.745, 0.667, 42.988, 40.187)" fill="#1682fb"/>
        <path id="Trazado_820050" data-name="Trazado 820050" d="M62.717,71.906l3.917-1.092a1.035,1.035,0,0,0,.449-.257l1.156-1.284L63.616,65.1,62.46,66.384a1.609,1.609,0,0,0-.257.449L61.5,70.879a.96.96,0,0,0,1.22,1.027" transform="translate(-22.009 -23.3)" fill="#1682fb"/>
        <path id="Trazado_820051" data-name="Trazado 820051" d="M90.885,42.459l-3.21-2.889a.993.993,0,0,0-1.348.064L84.4,41.817l4.623,4.174,1.926-2.183a.931.931,0,0,0-.064-1.348" transform="translate(-30.208 -14.079)" fill="#1682fb"/>
        <path id="Trazado_820052" data-name="Trazado 820052" d="M22.49,16.491a1.637,1.637,0,0,0-2.44-2.183l-3.981,4.559L14.143,16.94a1.634,1.634,0,1,0-2.312,2.312L14.978,22.4a1.547,1.547,0,0,0,1.156.449H16.2a1.373,1.373,0,0,0,1.156-.578Z" transform="translate(-4.062 -4.933)" fill="#ffce00"/>
      </g>
    </g>
  </g>
</svg>
