<svg xmlns="http://www.w3.org/2000/svg" xmlns:xlink="http://www.w3.org/1999/xlink" width="72.014" height="51.417" viewBox="0 0 72.014 51.417">
  <defs>
    <clipPath id="clip-path">
      <rect id="Rectángulo_382450" data-name="Rectángulo 382450" width="72.014" height="51.417" fill="#3a1d71"/>
    </clipPath>
  </defs>
  <g id="Grupo_1073146" data-name="Grupo 1073146" transform="translate(-440.993 -2466.583)">
    <g id="Grupo_1073141" data-name="Grupo 1073141" transform="translate(440.993 2466.583)" clip-path="url(#clip-path)">
      <path id="Trazado_820061" data-name="Trazado 820061" d="M3.072,0h65.87a3.079,3.079,0,0,1,3.072,3.071V39.176a3.08,3.08,0,0,1-3.072,3.072H43.9V47.32H50.29v4.1H21.725v-4.1h6.394V42.248H3.072A3.081,3.081,0,0,1,0,39.176V3.071A3.08,3.08,0,0,1,3.072,0ZM39.8,42.248H32.215V47.32H39.8ZM28.119,36.982V35.717H29.83v-.833a5.978,5.978,0,0,0,.721-.3l1.131,1.131h.7l2.376-2.375-1.483-1.483a5.915,5.915,0,0,0,.3-.721h2.095V27.282H33.577a5.915,5.915,0,0,0-.3-.721l1.483-1.483-2.727-2.727-1.482,1.482a6.168,6.168,0,0,0-.721-.3v-2.1H25.973v2.1a6.169,6.169,0,0,0-.721.3L23.77,22.351l-2.727,2.727,1.483,1.483a5.6,5.6,0,0,0-.3.721h-2.1v3.855h2.1a5.681,5.681,0,0,0,.3.722l-1.483,1.483,2.727,2.726,1.482-1.482a6.168,6.168,0,0,0,.721.3v2.1ZM39.288,5.266H44.3V7.988a7.736,7.736,0,0,1,.936.389l1.926-1.926L50.7,9.993l-1.926,1.926a7.625,7.625,0,0,1,.388.936h2.724v5.009H49.162a7.683,7.683,0,0,1-.388.935L50.7,20.725l-3.542,3.542-1.926-1.926a7.731,7.731,0,0,1-.936.388v2.724H39.286V22.729a7.886,7.886,0,0,1-.936-.388l-1.925,1.926-3.542-3.542L34.81,18.8a7.641,7.641,0,0,1-.388-.937H31.7V12.855h2.724a7.552,7.552,0,0,1,.388-.936L32.884,9.993l3.542-3.542,1.926,1.926a7.813,7.813,0,0,1,.936-.389Zm2.5,5.6A4.488,4.488,0,1,1,37.3,15.36a4.488,4.488,0,0,1,4.487-4.489M27.9,25.755a3.455,3.455,0,1,1-3.457,3.456A3.456,3.456,0,0,1,27.9,25.755" fill="#3a1d71" fill-rule="evenodd"/>
    </g>
    <g id="noun-money-285330" transform="translate(443.487 2463.604)">
      <path id="Trazado_820062" data-name="Trazado 820062" d="M14.47,6.1a9.01,9.01,0,1,0,9.01,9.01A9.01,9.01,0,0,0,14.47,6.1Zm0,17.081a8.071,8.071,0,1,1,8.071-8.071,8.071,8.071,0,0,1-8.071,8.071Z" transform="translate(0 0)" fill="#3a1d71"/>
      <path id="Trazado_820063" data-name="Trazado 820063" d="M39.958,31.422V28.848a2.779,2.779,0,0,1,1.332.608.372.372,0,0,0,.507-.545,3.383,3.383,0,0,0-1.84-.825V27.4a.375.375,0,0,0-.75,0v.675a2.2,2.2,0,0,0-2.177,2.084c0,1.238,1.419,1.634,2.177,1.824v2.85a4.518,4.518,0,0,1-1.709-.77.371.371,0,0,0-.525.525,4.8,4.8,0,0,0,2.23,1v.62a.375.375,0,0,0,.75,0V35.6c.957-.114,2.177-.675,2.177-1.952C42.161,32.661,41.367,31.854,39.958,31.422Zm-.75-.2c-.608-.168-1.419-.45-1.419-1.052,0-.788.7-1.216,1.419-1.332v2.38Zm.75,3.648V32.211c.675.243,1.419.7,1.419,1.463.026.827-.892,1.088-1.419,1.182Z" transform="translate(-25.038 -16.688)" fill="#3a1d71"/>
    </g>
  </g>
</svg>
